<?xml version="1.0" encoding="UTF-8"?>
<svg id="Calque_2" data-name="Calque 2" xmlns="http://www.w3.org/2000/svg" xmlns:xlink="http://www.w3.org/1999/xlink" viewBox="0 0 301.62 68.32">
  <defs>
    <style>
      .cls-1 {
        filter: url(#drop-shadow-6);
      }

      .cls-2 {
        filter: url(#drop-shadow-5);
      }

      .cls-2, .cls-3, .cls-4, .cls-5 {
        fill: #eb5a35;
      }

      .cls-6 {
        filter: url(#drop-shadow-7);
      }

      .cls-7, .cls-8 {
        fill: #ededed;
      }

      .cls-8 {
        filter: url(#drop-shadow-1);
      }

      .cls-3 {
        filter: url(#drop-shadow-2);
      }

      .cls-4 {
        filter: url(#drop-shadow-4);
      }

      .cls-5 {
        filter: url(#drop-shadow-3);
      }
    </style>
    <filter id="drop-shadow-1" x="0" y="0" width="65.04" height="67.2" filterUnits="userSpaceOnUse">
      <feOffset dx=".85" dy=".85"/>
      <feGaussianBlur result="blur" stdDeviation=".28"/>
      <feFlood flood-color="#646463" flood-opacity=".81"/>
      <feComposite in2="blur" operator="in"/>
      <feComposite in="SourceGraphic"/>
    </filter>
    <filter id="drop-shadow-2" x="60.72" y="18.24" width="45.36" height="45.84" filterUnits="userSpaceOnUse">
      <feOffset dx=".85" dy=".85"/>
      <feGaussianBlur result="blur-2" stdDeviation=".28"/>
      <feFlood flood-color="#646463" flood-opacity=".81"/>
      <feComposite in2="blur-2" operator="in"/>
      <feComposite in="SourceGraphic"/>
    </filter>
    <filter id="drop-shadow-3" x="108.72" y="19.68" width="36.96" height="44.4" filterUnits="userSpaceOnUse">
      <feOffset dx=".85" dy=".85"/>
      <feGaussianBlur result="blur-3" stdDeviation=".28"/>
      <feFlood flood-color="#646463" flood-opacity=".81"/>
      <feComposite in2="blur-3" operator="in"/>
      <feComposite in="SourceGraphic"/>
    </filter>
    <filter id="drop-shadow-4" x="145.68" y="18.24" width="45.12" height="45.84" filterUnits="userSpaceOnUse">
      <feOffset dx=".85" dy=".85"/>
      <feGaussianBlur result="blur-4" stdDeviation=".28"/>
      <feFlood flood-color="#646463" flood-opacity=".81"/>
      <feComposite in2="blur-4" operator="in"/>
      <feComposite in="SourceGraphic"/>
    </filter>
    <filter id="drop-shadow-5" x="227.76" y="19.68" width="39.36" height="44.4" filterUnits="userSpaceOnUse">
      <feOffset dx=".85" dy=".85"/>
      <feGaussianBlur result="blur-5" stdDeviation=".28"/>
      <feFlood flood-color="#646463" flood-opacity=".81"/>
      <feComposite in2="blur-5" operator="in"/>
      <feComposite in="SourceGraphic"/>
    </filter>
    <filter id="drop-shadow-6" x="188.16" y="13.68" width="39.36" height="56.4" filterUnits="userSpaceOnUse">
      <feOffset dx=".85" dy=".85"/>
      <feGaussianBlur result="blur-6" stdDeviation=".28"/>
      <feFlood flood-color="#646463" flood-opacity=".81"/>
      <feComposite in2="blur-6" operator="in"/>
      <feComposite in="SourceGraphic"/>
    </filter>
    <filter id="drop-shadow-7" x="270.24" y="54.72" width="33.12" height="9.36" filterUnits="userSpaceOnUse">
      <feOffset dx=".85" dy=".85"/>
      <feGaussianBlur result="blur-7" stdDeviation=".28"/>
      <feFlood flood-color="#646463" flood-opacity=".81"/>
      <feComposite in2="blur-7" operator="in"/>
      <feComposite in="SourceGraphic"/>
    </filter>
  </defs>
  <g id="Calque_1-2" data-name="Calque 1">
    <g>
      <path class="cls-8" d="M11.21,14.27c-.29-3.05.78-5.56,3.12-7.53,2.52-2.12,5.62-2.24,8.63-1.14C23.99,2.03,28.42-.41,31.98.21c2.4.41,4.01,1.71,5.8,3.23,2.01-2.6,6.35-3.68,9.37-2.45,5.86,2.38,7.22,10.66,7.68,16.21.3,3.66.27,7.35.47,11.01,1.97-1.34,4.08-2.08,6.22-.55,4.37,3.12-.92,10.56-3.11,13.57-.73,1-2.7,3.07-3.12,3.94-.51,1.06-.91,3.44-1.35,4.75-1.08,3.25-3.62,10.52-7.73,10.62-1.6.04-2.96-.67-3.83-2.01-.75-1.16-.69-2.3-.91-3.61-.95.73-1.94,1.42-2.94,2.08-5.83,3.85-16.73,11.54-23.79,7.2-2.84-1.75-4.51-5.9-3.55-9.11-2.24-.57-4.21-1.1-5.93-2.77-2.62-2.53-3.25-7.61-.91-10.54-4.05-2.53-5.35-7.64-2.85-11.75.78-1.29,1.92-2.04,3.09-2.9-3.7-5.24.19-12.94,6.63-12.87ZM49.67,42.09c-3.88-3.16-7.58-6.58-11.45-9.76s-7.83-6.42-11.84-9.2c-4.37-3.04-15.57-10.3-19.78-3.84-4.68,7.16,7.84,12.62,12.83,14.52,7.69,2.92,16.6,5.14,24.61,7.1,1.64.4,3.46.92,5.11,1.22.18.03.36.18.52-.03ZM6.18,29.2c-4.4,2.23-4.65,7.45-.73,10.35,6.93,5.12,20.51,4.6,28.84,4.85l10.09-.81c-7.06-1.87-14.22-3.55-21.17-5.84-4.85-1.59-10.34-3.58-14.5-6.57-.41-.3-2.32-2-2.54-1.99ZM47.53,36.9c-4-7.41-8.89-14.37-14.59-20.59-3.56-3.89-12.3-12.63-17.56-7.18-1.33,1.38-2.12,3.31-1.48,5.2,6.6,1.33,12.25,5.42,17.55,9.39s10.76,8.75,16.07,13.19ZM6.47,43.03c-2.14,2.9-1.03,7.23,2.27,8.75,5.59,2.58,16.31-.6,22.15-2.08,4.04-1.03,8.07-2.17,12.07-3.34l-10.82.63c-5.11-.12-10.37-.27-15.44-1.02-3.49-.52-7.07-1.3-10.23-2.94ZM49.13,34.37c-.76-2.31-1.59-4.6-2.44-6.87-2.45-6.55-6.61-19.31-12.1-23.46-3.47-2.62-7.82-1.45-9.37,2.57,4.78,2.55,8.61,6.73,12.08,10.81,2.13,2.5,4.11,5.14,6.06,7.78l5.77,9.17ZM47.11,47.91c-3.87.97-7.69,2.16-11.54,3.17s-8.23,2.2-12.3,3.07c-3.11.67-6.27,1.24-9.47,1.11-1.31,3.18.87,6.86,4.18,7.63,5.95,1.38,16.2-5.93,21.03-9.18,2.75-1.86,5.47-3.78,8.11-5.79ZM52.81,36.85c.06-2.8.04-5.61-.01-8.42-.13-6.1.06-19.77-4.72-23.99-2.55-2.25-6.79-1.89-8.64,1.03,1.96,2.53,3.34,5.43,4.6,8.35,1.43,3.29,2.74,6.8,4.03,10.16,1.64,4.27,3.09,8.61,4.74,12.87ZM51.93,47.63l-7.61,5.51c-1.09,3.29.94,7.32,3.99,3.18,1.6-2.17,2.33-4.82,3.31-7.29l.31-1.4ZM55.48,41c1.74-2.53,3.88-5.11,4.86-8.05.34-1.02.69-2.38-.23-3.2-1.45-1.29-3.85.7-4.75,1.9l.12,9.35Z"/>
      <g>
        <path class="cls-3" d="M81.64,18.37h1.84l20.83,43.93h-11.2l-2.13-4.39h-16.79l-2.05,4.39h-11.2l20.69-43.93ZM70.23,60.32l11.9-25.65h.99l11.76,25.65h5.74l-18.07-38.12-17.93,38.12h5.6ZM69.31,51.88h3.9l-.21.35h-3.9l.21-.35ZM69.94,50.47h3.9l-.21.35h-3.83l.14-.35ZM70.65,49.05h3.83l-.21.35h-3.83l.21-.35ZM71.29,47.63h3.83l-.21.35h-3.76l.14-.35ZM72,46.21h3.83l-.21.35h-3.83l.21-.35ZM72.64,44.8h3.83l-.21.35h-3.76l.14-.35ZM73.27,43.38h3.83l-.21.35h-3.76l.14-.35ZM73.98,41.96h3.83l-.21.35h-3.83l.21-.35ZM74.62,40.55h3.83l-.21.35h-3.76l.14-.35ZM90.14,55.99l-1.63-3.54h-11.98l-1.56,3.54h15.16ZM75.33,39.13h3.83l-.21.35h-3.83l.21-.35ZM75.97,37.71h3.83l-.21.35h-3.76l.14-.35ZM76.68,36.29h3.83l-.21.35h-3.83l.21-.35ZM76.68,54.72h11.48l.14.35h-11.76l.14-.35ZM77.31,34.88h3.83l-.21.35h-3.76l.14-.35ZM77.31,53.3h10.27l.21.35h-10.63l.14-.35ZM87.38,50.4l-4.82-10.7h-.14l-4.89,10.7h9.85ZM78.02,33.46h9l.21.35h-9.42l.21-.35ZM78.66,32.04h7.72l.14.35h-8.01l.14-.35ZM79.3,30.62h6.38l.21.35h-6.73l.14-.35ZM80.01,29.21h5.03l.14.35h-5.39l.21-.35ZM80.64,27.79h3.68l.21.35h-4.04l.14-.35ZM81.35,26.37h2.34l.14.35h-2.69l.21-.35ZM81.99,24.96h.99l.21.35h-1.35l.14-.35ZM82.56,23.75l.14.28h-.28l.14-.28ZM84.05,34.88h3.68l.14.35h-3.61l-.21-.35ZM84.68,36.29h3.68l.21.35h-3.69l-.21-.35ZM85.32,37.71h3.76l.14.35h-3.69l-.21-.35ZM85.96,39.13h3.76l.21.35h-3.76l-.21-.35ZM86.6,40.55h3.83l.14.35h-3.76l-.21-.35ZM87.23,41.96h3.83l.21.35h-3.83l-.21-.35ZM87.87,43.38h3.9l.14.35h-3.83l-.21-.35ZM88.51,44.8h3.9l.21.35h-3.9l-.21-.35ZM93.12,46.21l.14.35h-3.9l-.21-.35h3.97ZM93.75,47.63l.21.35h-4.04l-.21-.35h4.04ZM94.46,49.05l.14.35h-4.04l-.21-.35h4.11ZM95.1,50.47l.21.35h-4.11l-.21-.35h4.11ZM95.81,51.88l.14.35h-4.18l-.21-.35h4.25Z"/>
        <path class="cls-5" d="M108.85,19.78h10.42v18.99h.14l12.26-18.99h11.48l-14.6,20.2,15.38,22.32h-11.48l-13.04-20.62h-.14v20.62h-10.42V19.78ZM116.64,60.32V21.77h-5.17v38.55h5.17ZM134.08,60.32h5.81l-13.89-20.41,12.97-18.14h-5.6l-12.33,18.35,13.04,20.2ZM122.24,39.48h3.05l-.28.35h-3.05l.28-.35ZM122.45,40.9h3.26l.28.35h-3.33l-.21-.35ZM123.23,38.07h3.26l-.28.35h-3.26l.28-.35ZM123.38,42.32h3.33l.21.28h-3.4l-.14-.28ZM124.16,36.65h3.4l-.28.35h-3.4l.28-.35ZM124.23,43.66h3.33l.28.35h-3.4l-.21-.35ZM125.15,35.23h3.4l-.28.35h-3.4l.28-.35ZM125.15,45.08h3.4l.28.35h-3.47l-.21-.35ZM126.07,33.81h3.47l-.28.35h-3.47l.28-.35ZM126.07,46.5h3.4l.28.35h-3.47l-.21-.35ZM127.06,32.4h3.47l-.28.35h-3.47l.28-.35ZM126.99,47.92h3.47l.28.35h-3.54l-.21-.35ZM127.98,30.98h3.54l-.28.35h-3.54l.28-.35ZM131.38,49.33l.28.35h-3.54l-.21-.35h3.47ZM128.97,29.56h3.54l-.28.35h-3.54l.28-.35ZM132.38,50.75l.28.35h-3.61l-.21-.35h3.54ZM129.9,28.14h3.61l-.28.35h-3.61l.28-.35ZM133.3,52.17l.28.35h-3.69l-.21-.35h3.61ZM130.82,26.8h3.68l-.28.35h-3.69l.28-.35ZM134.29,53.58l.28.35h-3.76l-.21-.35h3.69ZM131.74,25.38h3.76l-.28.35h-3.76l.28-.35ZM135.21,55l.35.35h-3.83l-.21-.35h3.68ZM132.73,23.96h3.76l-.28.35h-3.76l.28-.35ZM136.2,56.42l.35.35h-3.9l-.21-.35h3.76ZM137.19,57.76l.28.35h-3.97l-.21-.35h3.9ZM133.65,22.55h3.83l-.28.35h-3.83l.28-.35ZM138.12,59.18l.35.35h-4.04l-.21-.35h3.9Z"/>
        <path class="cls-4" d="M166.39,18.37h1.84l20.83,43.93h-11.2l-2.13-4.39h-16.79l-2.05,4.39h-11.2l20.69-43.93ZM154.98,60.32l11.91-25.65h.99l11.76,25.65h5.74l-18.07-38.12-17.93,38.12h5.6ZM154.06,51.88h3.9l-.21.35h-3.9l.21-.35ZM154.7,50.47h3.9l-.21.35h-3.83l.14-.35ZM155.41,49.05h3.83l-.21.35h-3.83l.21-.35ZM156.04,47.63h3.83l-.21.35h-3.76l.14-.35ZM156.75,46.21h3.83l-.21.35h-3.83l.21-.35ZM157.39,44.8h3.83l-.21.35h-3.76l.14-.35ZM158.03,43.38h3.83l-.21.35h-3.76l.14-.35ZM158.74,41.96h3.83l-.21.35h-3.83l.21-.35ZM159.38,40.55h3.83l-.21.35h-3.76l.14-.35ZM174.89,55.99l-1.63-3.54h-11.98l-1.56,3.54h15.17ZM160.08,39.13h3.83l-.21.35h-3.83l.21-.35ZM160.72,37.71h3.83l-.21.35h-3.76l.14-.35ZM161.43,36.29h3.83l-.21.35h-3.83l.21-.35ZM161.43,54.72h11.48l.14.35h-11.76l.14-.35ZM162.07,34.88h3.83l-.21.35h-3.76l.14-.35ZM162.07,53.3h10.27l.21.35h-10.63l.14-.35ZM172.13,50.4l-4.82-10.7h-.14l-4.89,10.7h9.85ZM162.78,33.46h9l.21.35h-9.42l.21-.35ZM163.41,32.04h7.72l.14.35h-8.01l.14-.35ZM164.05,30.62h6.38l.21.35h-6.73l.14-.35ZM164.76,29.21h5.03l.14.35h-5.39l.21-.35ZM165.4,27.79h3.68l.21.35h-4.04l.14-.35ZM166.11,26.37h2.34l.14.35h-2.69l.21-.35ZM166.75,24.96h.99l.21.35h-1.35l.14-.35ZM167.31,23.75l.14.28h-.28l.14-.28ZM168.8,34.88h3.68l.14.35h-3.61l-.21-.35ZM169.44,36.29h3.68l.21.35h-3.68l-.21-.35ZM170.08,37.71h3.76l.14.35h-3.68l-.21-.35ZM170.71,39.13h3.76l.21.35h-3.76l-.21-.35ZM171.35,40.55h3.83l.14.35h-3.76l-.21-.35ZM171.99,41.96h3.83l.21.35h-3.83l-.21-.35ZM172.63,43.38h3.9l.14.35h-3.83l-.21-.35ZM173.26,44.8h3.9l.21.35h-3.9l-.21-.35ZM177.87,46.21l.14.35h-3.9l-.21-.35h3.97ZM178.51,47.63l.21.35h-4.04l-.21-.35h4.04ZM179.22,49.05l.14.35h-4.04l-.21-.35h4.11ZM179.85,50.47l.21.35h-4.11l-.21-.35h4.11ZM180.56,51.88l.14.35h-4.18l-.21-.35h4.25Z"/>
        <path class="cls-2" d="M227.9,19.78h10.42v16.72h16.65v-16.72h10.35v42.52h-10.35v-16.79h-16.65v16.79h-10.42V19.78ZM235.7,60.32v-16.79h21.9v16.79h5.1V21.77h-5.1v16.72h-21.9v-16.72h-5.17v38.55h5.17ZM231.23,22.4h3.76v.35h-3.76v-.35ZM231.23,23.82h3.76v.35h-3.76v-.35ZM231.23,25.24h3.76v.35h-3.76v-.35ZM231.23,26.66h3.76v.35h-3.76v-.35ZM231.23,28.07h3.76v.35h-3.76v-.35ZM231.23,29.49h3.76v.35h-3.76v-.35ZM231.23,30.91h3.76v.35h-3.76v-.35ZM231.23,32.33h3.76v.35h-3.76v-.35ZM231.23,33.74h3.76v.35h-3.76v-.35ZM231.23,35.16h3.76v.35h-3.76v-.35ZM231.23,36.58h3.76v.35h-3.76v-.35ZM231.23,37.99h3.76v.35h-3.76v-.35ZM231.23,39.41h30.75v.35h-30.75v-.35ZM231.23,40.83h30.75v.35h-30.75v-.35ZM231.23,42.25h30.75v.35h-30.75v-.35ZM258.23,22.4h3.76v.35h-3.76v-.35ZM258.23,23.82h3.76v.35h-3.76v-.35ZM258.23,25.24h3.76v.35h-3.76v-.35ZM258.23,26.66h3.76v.35h-3.76v-.35ZM258.23,28.07h3.76v.35h-3.76v-.35ZM258.23,29.49h3.76v.35h-3.76v-.35ZM258.23,30.91h3.76v.35h-3.76v-.35ZM258.23,32.33h3.76v.35h-3.76v-.35ZM258.23,33.74h3.76v.35h-3.76v-.35ZM258.23,35.16h3.76v.35h-3.76v-.35ZM258.23,36.58h3.76v.35h-3.76v-.35ZM258.23,37.99h3.76v.35h-3.76v-.35Z"/>
        <g class="cls-1">
          <path class="cls-7" d="M194.91,49.47c1.98,1.91,4.32,3.76,7.65,4.25v-8.79c-8.93-1.84-13.04-6.38-13.04-12.26,0-6.87,4.68-12.05,13.04-13.61v-5.31h9.78v5.03c4.75.71,9.35,2.69,13.04,5.81l-6.02,7.02c-1.91-1.49-4.32-3.26-7.02-3.69v8.93l1.35.28c8.08,1.7,12.12,6.73,12.12,12.68,0,6.45-3.97,11.9-13.46,13.39v5.1h-9.78v-5.1c-5.53-.92-10.7-3.4-14.24-7.37l6.59-6.38ZM202.56,60.81v-4.82c-2.13-.28-6.17-1.98-7.72-3.83l-3.61,3.54c2.83,3.05,8.08,5.03,11.34,5.1ZM211.35,44.44c3.97.92,5.95,3.12,5.95,6.02,0,2.55-.92,4.75-4.96,6.09v4.39c7.23-.85,11.05-4.32,11.05-11.13,0-4.68-3.19-9.21-9.85-10.42l-8.5-1.56c-5.74-1.06-7.37-3.47-7.37-6.52,0-4.46,4.89-5.88,4.89-5.88v-4.39c-3.47.57-10.49,3.47-10.49,11.62,0,4.75,3.12,8.08,10.56,9.78l8.72,1.98ZM192.64,55.28h5.6l.71.35h-6.66l.35-.35ZM192.78,30.91h4.25v.35h-4.25v-.35ZM193.14,29.49h4.18l-.14.35h-4.18l.14-.35ZM201.92,56.7v.35h-8.22l-.5-.35h8.72ZM193.63,28.07h4.39l-.28.35h-4.25l.14-.35ZM194.06,53.8h1.49l.64.43h-2.48l.35-.43ZM194.27,27.01l.28-.43h4.82l-.5.43h-4.68.07ZM195.76,25.17h5.6l-.64.35h-5.31l.35-.35ZM201.92,58.12v.35h-5.81l-.71-.35h6.52ZM197.67,23.75h4.25v.35h-4.75l.5-.35ZM201.92,59.54v.35h-1.42l-1.56-.35h2.98ZM200.58,22.33h1.35v.35h-2.27l.92-.35ZM202.56,27.93c-1.91.57-2.76,1.84-2.76,3.4,0,1.35.57,2.62,2.76,3.54v-6.94ZM209.79,36.51V15.89h-4.68v19.7l4.68.92ZM209.79,66.34v-19.91l-4.68-.92v20.83h4.68ZM218.93,28.78l3.26-3.68c-4.04-2.76-6.02-3.69-9.85-4.11v4.68c2.13.28,4.89,1.77,6.59,3.12ZM214.96,50.75c0-1.77-.92-2.83-2.62-3.61v7.09c1.77-.64,2.62-1.84,2.62-3.47ZM212.98,22.33h2.48l1.13.35h-3.61v-.35ZM212.98,23.75h5.67l.57.35h-6.24v-.35ZM212.98,58.12h5.67l-.5.35h-5.17v-.35ZM212.98,59.54h2.91l-1.42.35h-1.49v-.35ZM213.9,56.7h6.52l-.35.35h-6.66l.5-.35ZM221.06,25.17l-.14.35h-6.38l-.71-.35h7.23ZM216.02,55.28h5.39l-.14.35h-5.74l.5-.35ZM219.99,26.59l-.35.43h-2.06l-.71-.43h3.12ZM217.16,53.8h4.96l-.21.43h-4.96l.21-.43ZM217.73,52.38h4.75l-.07.35h-4.75l.07-.35Z"/>
        </g>
        <g class="cls-6">
          <path class="cls-7" d="M301.62,54.86v7.44h-31.18v-7.44h31.18ZM273.06,60.53h25.94v-3.9h-25.94v3.9ZM298.22,57.27v.35h-24.45v-.35h24.45ZM298.22,58.4v.35h-24.45v-.35h24.45ZM298.22,59.54v.35h-24.45v-.35h24.45Z"/>
        </g>
      </g>
    </g>
  </g>
</svg>